<svg xmlns="http://www.w3.org/2000/svg" width="256" height="263.54" viewBox="0 0 256 263.54"><g transform="translate(0 0)"><path d="M255.856,59.62A4.132,4.132,0,0,1,256,60.7v56.568a4.125,4.125,0,0,1-2.073,3.578l-47.479,27.335V202.36a4.135,4.135,0,0,1-2.062,3.578l-99.108,57.053a4.433,4.433,0,0,1-.722.3c-.093.031-.18.088-.278.113a4.151,4.151,0,0,1-2.114,0c-.113-.031-.217-.093-.325-.134a4.292,4.292,0,0,1-.681-.278L2.073,205.938A4.128,4.128,0,0,1,0,202.36V32.656a4.216,4.216,0,0,1,.144-1.083c.031-.119.1-.227.144-.345a4.064,4.064,0,0,1,.263-.639,3.858,3.858,0,0,1,.284-.366,4.2,4.2,0,0,1,.366-.479,4.028,4.028,0,0,1,.407-.309,3.363,3.363,0,0,1,.454-.356h.005L51.613.551a4.135,4.135,0,0,1,4.125,0l49.546,28.526h.01a5.056,5.056,0,0,1,.454.351,4.878,4.878,0,0,1,.4.309,4.823,4.823,0,0,1,.371.485,3.8,3.8,0,0,1,.278.366,4.305,4.305,0,0,1,.268.639c.041.119.113.227.144.351a4.171,4.171,0,0,1,.144,1.078v106l41.287-23.773V60.692a4.168,4.168,0,0,1,.144-1.072c.036-.124.1-.232.144-.351a4.647,4.647,0,0,1,.268-.639c.077-.134.191-.242.278-.366a4.243,4.243,0,0,1,.371-.479,3.959,3.959,0,0,1,.4-.309,4.162,4.162,0,0,1,.454-.356h.005l49.551-28.526a4.13,4.13,0,0,1,4.125,0l49.546,28.526a4.557,4.557,0,0,1,.464.351c.129.1.278.2.4.309a4.825,4.825,0,0,1,.371.485,3.117,3.117,0,0,1,.278.366,4.089,4.089,0,0,1,.268.639A2.948,2.948,0,0,1,255.856,59.62Zm-8.115,55.259V67.838L230.4,77.819,206.449,91.611v47.04l41.3-23.773Zm-49.546,85.094V152.9l-23.561,13.456-67.282,38.4v47.515ZM8.259,39.8V199.973l90.833,52.294v-47.5L51.639,177.906l-.015-.01-.021-.01a193.089,193.089,0,0,0-.835-.639l-.01-.015a3.928,3.928,0,0,1-.34-.433,4.4,4.4,0,0,1-.309-.4l-.005-.015a3.288,3.288,0,0,1-.217-.516,3.051,3.051,0,0,1-.2-.464V175.4a3.948,3.948,0,0,1-.082-.6,3.577,3.577,0,0,1-.062-.464V63.569L25.6,49.772,8.259,39.8Zm45.422-30.9L12.4,32.656,53.671,56.418,94.947,32.65,53.671,8.893Zm21.468,148.3L99.1,143.4V39.8L81.759,49.778,57.805,63.569V167.177ZM202.324,36.935,161.048,60.7,202.324,84.46,243.6,60.692Zm-4.13,54.676L174.241,77.819,156.9,67.838v47.04l23.948,13.786,17.344,9.987ZM103.217,197.617l60.543-34.564,30.264-17.272-41.245-23.747-47.489,27.341L62.007,174.292Z" fill="#fff"/></g></svg>